<svg width="66" height="73" viewBox="0 0 66 73" fill="none" xmlns="http://www.w3.org/2000/svg">
<path d="M32.9995 51.2633C41.9435 51.2633 49.4995 40.7913 49.4995 28.3959C49.4995 16.0006 41.9435 5.52855 32.9995 5.52855C24.0555 5.52855 16.4995 16.0006 16.4995 28.3959C16.4995 40.7913 24.0555 51.2633 32.9995 51.2633ZM32.9995 10.3427C39.7078 10.3427 45.3745 18.6099 45.3745 28.3959C45.3745 38.182 39.7078 46.4492 32.9995 46.4492C26.2912 46.4492 20.6245 38.182 20.6245 28.3959C20.6245 18.6099 26.2912 10.3427 32.9995 10.3427Z" fill="#D90429"/>
<path d="M4.23083 55.3157L0.105832 69.7583C-0.103512 70.4924 0.00167526 71.2988 0.389425 71.927C0.776144 72.5553 1.39902 72.9272 2.06211 72.9272H63.9371C64.6002 72.9272 65.2231 72.5553 65.6098 71.927C65.9976 71.3 66.1038 70.4936 65.8934 69.7583L61.7684 55.3157C61.5529 54.5623 61.0331 53.9822 60.3783 53.7631L45.9408 48.9489C45.4437 48.7816 44.9136 48.8406 44.4516 49.1102L32.9996 55.7935L21.5476 49.1102C21.0856 48.8406 20.5555 48.7828 20.0585 48.9489L5.62096 53.7631C4.96508 53.9822 4.44636 54.5623 4.23083 55.3157ZM20.4204 53.8353L32.0777 60.6378C32.6572 60.976 33.343 60.976 33.9226 60.6378L45.5798 53.8353L58.2003 58.0429L61.0764 68.113H4.9228L7.79896 58.0429L20.4204 53.8353Z" fill="#D90429"/>
<path d="M63.937 7.93564H59.812V3.12145C59.812 1.79273 58.888 0.714355 57.7495 0.714355C56.611 0.714355 55.687 1.79273 55.687 3.12145V7.93564H51.562C50.4235 7.93564 49.4995 9.01402 49.4995 10.3427C49.4995 11.6714 50.4235 12.7498 51.562 12.7498H55.687V17.564C55.687 18.8927 56.611 19.9711 57.7495 19.9711C58.888 19.9711 59.812 18.8927 59.812 17.564V12.7498H63.937C65.0755 12.7498 65.9995 11.6714 65.9995 10.3427C65.9995 9.01402 65.0755 7.93564 63.937 7.93564Z" fill="#D90429"/>
</svg>
