<svg width="71" height="80" viewBox="0 0 71 80" fill="none" xmlns="http://www.w3.org/2000/svg">
<g clip-path="url(#clip0_75_24)">
<path d="M59.1673 0H11.8347C5.30495 0.025 0.0243237 5.9775 0.00213623 13.3325V66.665C0.00213623 73.995 5.32936 79.9975 11.8347 79.9975H59.1673C65.6727 79.9975 70.9999 73.995 70.9999 66.665V13.3325C70.9999 6.0025 65.6727 0 59.1673 0V0ZM52.6952 56.185C52.105 57.7875 51.1687 59.205 49.9684 60.3C48.7192 61.4325 47.1484 62.37 45.207 63.035C43.2766 63.7125 40.978 64.05 38.3089 64.05H19.2875V17.3825H39.4071C43.128 17.3825 46.11 18.32 48.3398 20.2475C50.5941 22.175 51.7034 25.065 51.7034 28.945C51.7034 31.3025 51.1954 33.3075 50.1769 34.9725C49.1585 36.6375 47.692 37.9275 45.7971 38.8275V38.985C48.3287 39.585 50.2812 40.9375 51.5637 43.035C52.8461 45.1325 53.5162 47.7875 53.5162 50.99C53.5162 52.7875 53.2033 54.4925 52.6264 56.08L52.6952 56.17V56.185ZM44.4792 44.6875C43.2766 43.4375 41.566 42.825 39.3716 42.825H26.5783V57.3825H39.4049C41.5882 57.3825 43.3099 56.745 44.5236 55.455C45.7372 54.165 46.3496 52.33 46.3496 49.985C46.3274 47.68 45.7372 45.8975 44.5236 44.685H44.4659L44.4792 44.6875ZM42.7109 35.2725C43.8779 34.1525 44.4548 32.55 44.4548 30.455C44.4548 28.11 43.9356 26.445 42.8839 25.495C41.8433 24.545 40.3412 24.05 38.3665 24.05H26.5339V36.9275H38.3665C40.0883 36.9275 41.5682 36.355 42.6998 35.275L42.7109 35.2725Z" fill="#D90429"/>
</g>
<defs>
<clipPath id="clip0_75_24">
<rect width="71" height="80" fill="white"/>
</clipPath>
</defs>
</svg>
