<svg width="87" height="78" viewBox="0 0 87 78" fill="none" xmlns="http://www.w3.org/2000/svg">
<path d="M62.3499 74.9903H52.1999V68.1128C52.1999 67.3536 51.5503 66.7374 50.75 66.7374C49.9496 66.7374 49.3 67.3536 49.3 68.1128V74.9903H37.7V68.1128C37.7 67.3536 37.0504 66.7374 36.25 66.7374C35.4497 66.7374 34.8001 67.3536 34.8001 68.1128V74.9903H24.6501C23.8498 74.9903 23.2002 75.6065 23.2002 76.3657C23.2002 77.1249 23.8498 77.7412 24.6501 77.7412H62.3502C63.1505 77.7412 63.8001 77.1249 63.8001 76.3657C63.8001 75.6065 63.1504 74.9903 62.3499 74.9903Z" fill="#D90429"/>
<path d="M43.5434 55.7335H43.529C42.7287 55.7335 42.0862 56.3497 42.0862 57.1089C42.0862 57.8681 42.7431 58.4843 43.5434 58.4843C44.3453 58.4843 44.9934 57.8681 44.9934 57.1089C44.9934 56.3497 44.3453 55.7335 43.5434 55.7335Z" fill="#D90429"/>
<path d="M70.0249 19.5679C70.3076 19.8361 70.6789 19.9709 71.05 19.9709C71.4213 19.9709 71.7924 19.8361 72.0751 19.5679C72.642 19.03 72.642 18.1607 72.0751 17.623L69.1753 14.872C68.6084 14.3341 67.6918 14.3341 67.125 14.872C66.5579 15.4099 66.5579 16.2792 67.125 16.8169L70.0249 19.5679Z" fill="#D90429"/>
<path d="M70.0248 27.8208C70.3075 28.089 70.6788 28.2238 71.0499 28.2238C71.4212 28.2238 71.7923 28.089 72.0751 27.8208C72.6419 27.2829 72.6419 26.4136 72.0751 25.8759L60.4752 14.872C59.9082 14.3341 58.9918 14.3341 58.4249 14.872C57.8579 15.4099 57.8579 16.2792 58.4249 16.8169L70.0248 27.8208Z" fill="#D90429"/>
<path d="M79.7499 0.714233H7.25006C3.5235 0.714233 0 4.05666 0 7.59154V57.1089C0 60.644 3.5235 63.9864 7.25006 63.9864H79.7501C83.4767 63.9864 87.0002 60.644 87.0002 57.1089V7.59154C87 4.05666 83.4765 0.714233 79.7499 0.714233ZM84.0999 57.1089C84.0999 59.1144 81.8641 61.2354 79.7499 61.2354H7.25006C5.13589 61.2354 2.90006 59.1144 2.90006 57.1089V7.59154C2.90006 5.58602 5.13589 3.46509 7.25006 3.46509H79.7501C81.8643 3.46509 84.1001 5.58602 84.1001 7.59154V57.1089H84.0999Z" fill="#D90429"/>
<path d="M79.7499 6.21609H7.24999C6.44966 6.21609 5.80005 6.83232 5.80005 7.59152V51.607C5.80005 52.3662 6.44966 52.9824 7.24999 52.9824H79.7501C80.5504 52.9824 81.2 52.3662 81.2 51.607V7.59152C81.2 6.83232 80.5504 6.21609 79.7499 6.21609ZM78.2999 50.2316H8.69994V8.96711H78.2999V50.2316Z" fill="#D90429"/>
</svg>
