<svg width="29" height="32" viewBox="0 0 29 32" fill="none" xmlns="http://www.w3.org/2000/svg">
<path d="M19.9993 1.80835C16.9792 1.14148 13.8383 1.14148 10.8183 1.80837C9.07398 0.790758 7.74111 0.323781 6.77238 0.127037C6.24572 0.0200572 5.82827 -0.00667004 5.51429 0.00131528C5.3576 0.00528445 5.22791 0.017873 5.12462 0.0329981C5.07302 0.0405372 5.0282 0.0486868 4.99004 0.0566252C4.97097 0.0605943 4.95357 0.0645167 4.93788 0.068298L4.91559 0.0738172L4.90541 0.0764711L4.90054 0.0777629L4.89584 0.0790312C4.89582 0.0790312 4.89584 0.0790077 4.89584 0.0790312C4.89478 0.0794775 4.9 0.0928176 5.23528 1.20708L4.89584 0.0790312C4.54487 0.174409 4.25625 0.412442 4.10741 0.729224C3.69187 1.61355 3.46492 2.56742 3.43967 3.53564C3.42089 4.25517 3.51378 4.97201 3.71416 5.66331C3.18756 6.26953 2.7585 6.94838 2.44235 7.67782C2.0274 8.63526 1.81513 9.66106 1.8177 10.6965C1.81802 14.3429 2.94989 16.7946 4.87879 18.3699C6.23025 19.4737 7.87317 20.061 9.51821 20.3973C9.24656 21.1146 9.17606 21.8734 9.23104 22.6468V24.0518C8.22443 24.2531 7.52936 24.1894 7.03383 24.0339C6.41116 23.8385 5.93379 23.4458 5.47843 22.8815C5.24781 22.5959 5.03534 22.2821 4.81222 21.9387L4.6706 21.7196C4.49587 21.4483 4.3073 21.1559 4.117 20.8891C3.64549 20.2282 2.94984 19.4024 1.82257 19.1211L0.627515 18.8229L0 21.0944L1.19506 21.3927C1.39139 21.4418 1.64981 21.6158 2.07176 22.2072C2.22679 22.4244 2.37469 22.6539 2.54357 22.9158C2.5966 22.998 2.65183 23.0837 2.70987 23.1732C2.94181 23.5299 3.20783 23.9271 3.51778 24.3111C4.14354 25.0864 4.99553 25.8677 6.25938 26.2642C7.12775 26.5366 8.10928 26.6019 9.23104 26.4382V30.8257C9.23104 31.4741 9.78423 32 10.4666 32H20.3511C21.0335 32 21.5866 31.4741 21.5866 30.8257V22.4587C21.5866 21.717 21.5526 21.039 21.333 20.4063C22.9697 20.0779 24.5997 19.4901 25.9422 18.3855C27.8705 16.7991 29 14.3253 29 10.6569V10.6531C28.9938 8.82406 28.3185 7.06224 27.1034 5.66335C27.3038 4.97204 27.3967 4.25519 27.378 3.53564C27.3528 2.56742 27.1259 1.61355 26.7103 0.729224C26.5613 0.412348 26.2726 0.174291 25.9215 0.0789372L25.5822 1.20806C25.9215 0.0789371 25.918 0.0779977 25.9168 0.0776689L25.9121 0.0763773L25.9017 0.0737467L25.8795 0.0682274C25.8639 0.0644697 25.8464 0.0605476 25.8273 0.0565784C25.7893 0.0486401 25.7446 0.0405137 25.6929 0.0329746C25.5896 0.017873 25.4599 0.00528445 25.3032 0.00131528C24.9891 -0.00667004 24.5715 0.0200572 24.0447 0.127014C23.0758 0.323781 21.7431 0.790734 19.9993 1.80835Z" fill="#C4C4C4"/>
</svg>
