<svg width="33" height="34" viewBox="0 0 33 34" fill="none" xmlns="http://www.w3.org/2000/svg">
<path d="M4.11845 0H27.9586C30.2236 0 32.0752 1.94604 32.0752 4.32568V29.3732C32.0752 31.7522 30.2236 33.6969 27.9586 33.6969H4.11845C1.85352 33.6969 0 31.7521 0 29.3732V4.32568C0 1.94604 1.85352 0 4.11845 0ZM23.3663 3.74256C22.5711 3.74256 21.9224 4.42677 21.9224 5.26185V8.89174C21.9224 9.72715 22.5711 10.4098 23.3663 10.4098H26.9911C27.7851 10.4098 28.4352 9.72715 28.4352 8.89174V5.26185C28.4352 4.42677 27.7851 3.74256 26.9911 3.74256H23.3663ZM28.449 14.25H25.6268C25.8944 15.1683 26.0395 16.1367 26.0395 17.1435C26.0395 22.7469 21.574 27.2916 16.0677 27.2916C10.5629 27.2916 6.09727 22.7469 6.09727 17.1435C6.09727 16.1367 6.24375 15.1683 6.51008 14.25H3.56569V28.486C3.56569 29.2233 4.13866 29.823 4.83971 29.823H27.1755C27.8772 29.823 28.449 29.2233 28.449 28.486V14.25ZM16.0678 10.2184C12.5118 10.2184 9.62714 13.1534 9.62714 16.7772C9.62714 20.3973 12.5118 23.3346 16.0678 23.3346C19.6258 23.3346 22.5106 20.3973 22.5106 16.7772C22.5106 13.1533 19.6258 10.2184 16.0678 10.2184Z" fill="#C4C4C4"/>
</svg>
