<svg width="33" height="34" viewBox="0 0 33 34" fill="none" xmlns="http://www.w3.org/2000/svg">
<path d="M7.46625 10.8044H1.02711C0.741328 10.8044 0.509766 11.0478 0.509766 11.3479V33.0817C0.509766 33.382 0.741328 33.6253 1.02711 33.6253H7.46625C7.75203 33.6253 7.98359 33.382 7.98359 33.0817V11.3479C7.98359 11.0478 7.75203 10.8044 7.46625 10.8044Z" fill="#C4C4C4"/>
<path d="M4.24903 0C1.90609 0 0 2.00045 0 4.45932C0 6.91928 1.90609 8.92049 4.24903 8.92049C6.5901 8.92049 8.49464 6.91917 8.49464 4.45932C8.49474 2.00045 6.5901 0 4.24903 0Z" fill="#C4C4C4"/>
<path d="M23.8447 10.2642C21.2585 10.2642 19.3467 11.4323 18.1871 12.7595V11.3479C18.1871 11.0478 17.9556 10.8044 17.6698 10.8044H11.5032C11.2174 10.8044 10.9858 11.0478 10.9858 11.3479V33.0818C10.9858 33.382 11.2174 33.6253 11.5032 33.6253H17.9282C18.214 33.6253 18.4456 33.382 18.4456 33.0818V22.3286C18.4456 18.705 19.3824 17.2933 21.7866 17.2933C24.4049 17.2933 24.613 19.5564 24.613 22.515V33.0819C24.613 33.3821 24.8446 33.6254 25.1304 33.6254H31.5578C31.8436 33.6254 32.0751 33.3821 32.0751 33.0819V21.1605C32.0751 15.7724 31.0973 10.2642 23.8447 10.2642Z" fill="#C4C4C4"/>
</svg>
