<svg width="95" height="37" viewBox="0 0 95 37" fill="none" xmlns="http://www.w3.org/2000/svg">
<path d="M6.78875 26.872L0.29275 19.8L6.78875 12.728H13.6688L7.14075 19.8L13.6688 26.872H6.78875ZM30.2698 0.599998L21.6938 36.984H16.4138L24.9898 0.599998H30.2698ZM32.6098 12.728H39.4898L45.9858 19.8L39.4898 26.872H32.6098L39.1378 19.8L32.6098 12.728Z" fill="white"/>
<path d="M48.9622 19.736C48.9622 17.5173 49.4423 15.544 50.4023 13.816C51.3623 12.0667 52.6956 10.712 54.4023 9.752C56.1303 8.77067 58.0823 8.28 60.2583 8.28C62.9249 8.28 65.2076 8.984 67.1063 10.392C69.0049 11.8 70.2743 13.72 70.9143 16.152H64.8983C64.4503 15.2133 63.8103 14.4987 62.9783 14.008C62.1676 13.5173 61.2396 13.272 60.1943 13.272C58.5089 13.272 57.1436 13.8587 56.0983 15.032C55.0529 16.2053 54.5303 17.7733 54.5303 19.736C54.5303 21.6987 55.0529 23.2667 56.0983 24.44C57.1436 25.6133 58.5089 26.2 60.1943 26.2C61.2396 26.2 62.1676 25.9547 62.9783 25.464C63.8103 24.9733 64.4503 24.2587 64.8983 23.32H70.9143C70.2743 25.752 69.0049 27.672 67.1063 29.08C65.2076 30.4667 62.9249 31.16 60.2583 31.16C58.0823 31.16 56.1303 30.68 54.4023 29.72C52.6956 28.7387 51.3623 27.384 50.4023 25.656C49.4423 23.928 48.9622 21.9547 48.9622 19.736ZM82.6813 8.536C85.0493 8.536 87.1186 9.00533 88.8893 9.944C90.6599 10.8827 92.0253 12.2053 92.9853 13.912C93.9666 15.5973 94.4573 17.5493 94.4573 19.768C94.4573 21.9653 93.9666 23.9173 92.9853 25.624C92.0253 27.3307 90.6493 28.6533 88.8573 29.592C87.0866 30.5307 85.0279 31 82.6813 31H74.2653V8.536H82.6813ZM82.3293 26.264C84.3986 26.264 86.0093 25.6987 87.1613 24.568C88.3133 23.4373 88.8893 21.8373 88.8893 19.768C88.8893 17.6987 88.3133 16.088 87.1613 14.936C86.0093 13.784 84.3986 13.208 82.3293 13.208H79.7373V26.264H82.3293Z" fill="#D90429"/>
</svg>
