<svg width="48" height="89" viewBox="0 0 48 89" fill="none" xmlns="http://www.w3.org/2000/svg">
<path d="M0 82.4472C0 85.9199 2.42032 88.7451 5.39537 88.7451H42.154C45.1291 88.7451 47.5494 85.9199 47.5494 82.4472V7.01213C47.5494 3.53946 45.1291 0.714233 42.154 0.714233H5.39537C2.42032 0.714233 0 3.53946 0 7.01213V82.4472ZM3.22709 14.4006H44.3222V67.4243H3.22709V14.4006ZM3.22709 7.01213C3.22709 5.47334 4.19974 4.22144 5.39537 4.22144H42.154C43.3495 4.22144 44.3223 5.47334 44.3223 7.01213V10.8934H3.22709V7.01213ZM44.3222 82.4472C44.3222 83.986 43.3495 85.2379 42.1539 85.2379H5.39537C4.19974 85.2379 3.22709 83.986 3.22709 82.4472V70.9315H44.3222V82.4472Z" fill="#D90429"/>
<path d="M23.7746 82.9284C26.2784 82.9284 28.3152 80.7149 28.3152 77.9938C28.3152 75.2727 26.2784 73.0591 23.7746 73.0591C21.2711 73.0591 19.2341 75.2727 19.2341 77.9938C19.2341 80.7149 21.2711 82.9284 23.7746 82.9284ZM23.7746 76.5665C24.4988 76.5665 25.0881 77.2068 25.0881 77.994C25.0881 78.7812 24.499 79.4214 23.7746 79.4214C23.0503 79.4214 22.4612 78.7812 22.4612 77.994C22.4612 77.2068 23.0505 76.5665 23.7746 76.5665Z" fill="#D90429"/>
<path d="M25.2799 5.98572H22.2694C21.3782 5.98572 20.6558 6.77098 20.6558 7.73932C20.6558 8.70766 21.3782 9.49292 22.2694 9.49292H25.2799C26.1709 9.49292 26.8935 8.70766 26.8935 7.73932C26.8935 6.77098 26.1711 5.98572 25.2799 5.98572Z" fill="#D90429"/>
<path d="M7.88558 29.7977C6.99442 29.7977 6.27203 30.583 6.27203 31.5513V62.4524C6.27203 63.4208 6.99442 64.2061 7.88558 64.2061C8.77674 64.2061 9.49913 63.4208 9.49913 62.4524V31.5513C9.49913 30.5828 8.77674 29.7977 7.88558 29.7977Z" fill="#D90429"/>
<path d="M7.88558 17.9825C6.99442 17.9825 6.27203 18.7677 6.27203 19.7361V24.4622C6.27203 25.4306 6.99442 26.2158 7.88558 26.2158C8.77674 26.2158 9.49913 25.4306 9.49913 24.4622V19.7361C9.49913 18.7676 8.77674 17.9825 7.88558 17.9825Z" fill="#D90429"/>
</svg>
