<svg width="83" height="71" viewBox="0 0 83 71" fill="none" xmlns="http://www.w3.org/2000/svg">
<path d="M38.9029 0.045465C35.0164 -0.19229 30.6467 0.49814 26.3722 2.21819C19.5797 4.94988 12.233 9.24643 6.95028 14.8437C0.674778 21.5056 -0.331851 27.3034 0.0806492 29.7291C1.54915 38.3321 12.0164 43.9444 16.2047 48.0945C15.9984 48.2252 15.8061 48.3377 15.6246 48.4556C13.5236 49.6382 5.72949 54.2839 3.73299 59.2819C1.47799 64.9493 4.10609 69.0057 5.83309 69.5603C11.2203 71.2561 16.5515 68.2925 19.5133 63.285C22.4778 58.2742 22.1207 51.7348 20.754 48.7544C20.7402 48.7098 20.714 48.6808 20.7003 48.6362C21.242 48.2696 21.7937 47.9008 22.3492 47.5342C23.419 46.817 24.4628 46.1624 25.3785 45.5918C24.8615 47.1697 24.4888 49.073 24.2935 51.8174C24.0625 55.0304 25.2328 59.1875 26.7535 60.8259C27.4245 61.543 28.2349 61.5605 28.7354 61.5605C30.5147 61.5605 31.3143 59.8951 32.1998 57.9061C33.2943 55.4804 34.2623 52.6641 34.2623 52.6641C34.2623 52.6641 33.054 60.2842 36.3678 60.2842C37.5778 60.2842 38.7909 58.5187 39.3326 57.6135V57.6259C39.3326 57.6259 39.3525 57.5695 39.4185 57.4516C39.5478 57.2317 39.6119 57.103 39.6119 57.103V57.0594C40.1014 56.1095 41.1747 53.9343 42.7862 50.342C44.8735 45.6978 46.8682 39.8954 46.8682 39.8954C47.0607 41.1704 47.3275 42.4284 47.6685 43.6619C48.0288 45.0485 48.793 46.5689 49.398 48.0447C48.9085 48.8034 48.6085 49.24 48.6085 49.24C48.6085 49.2528 48.6163 49.2648 48.6246 49.2712C48.2368 49.8545 47.7973 50.4801 47.3463 51.0953C45.6963 53.317 43.7348 55.8625 43.4791 56.5925C43.1683 57.4531 43.2477 58.0936 43.839 58.5909C44.2762 58.9702 45.0554 59.0283 45.8639 58.9582C47.3461 58.8402 48.3899 58.4289 48.8932 58.1675C49.8199 57.7914 50.6953 57.2738 51.4928 56.6236C53.1043 55.2785 54.0864 53.3493 53.9957 50.8089C53.9434 49.4064 53.5399 48.0008 53.0504 46.6875C53.1934 46.4549 53.3506 46.2078 53.4908 45.9592C56.0428 41.7389 58.0133 37.1064 58.0133 37.1064C58.2058 38.3814 58.4726 39.6393 58.8136 40.8729C59.1243 42.0554 59.7297 43.3551 60.2852 44.6269C57.89 46.8326 56.4033 49.3905 55.8863 51.0704C54.9321 54.1814 55.6842 55.5795 57.0894 55.9014C57.7219 56.048 58.6206 55.7159 59.2916 55.3971C60.2871 55.021 61.2241 54.4735 62.0738 53.7723C63.6853 52.4271 65.2452 50.5451 65.1407 47.9887C65.1022 46.8348 64.8218 45.6801 64.4478 44.5709C66.4718 43.6082 69.0985 43.082 72.4508 43.5187C79.6283 44.4686 81.0347 49.5515 80.7652 51.668C80.4957 53.7877 78.9858 54.9718 78.4825 55.3224C77.9793 55.6731 77.8263 55.8049 77.8648 56.0695C77.9281 56.4488 78.1583 56.4327 78.5846 56.3434C79.1786 56.2255 82.3463 54.6208 82.4893 50.6906C82.6955 45.727 78.4866 40.2673 71.0274 40.3063H71.0167C68.4271 40.3082 65.8741 40.9811 63.5509 42.2798C62.7891 40.5426 62.0016 39.0225 61.8751 37.8846C61.7211 36.5554 61.5567 35.7674 61.7354 34.1928C61.9169 32.615 62.7267 30.3772 62.713 30.2147C62.6992 30.0553 62.5317 29.2532 60.8707 29.2372C59.2097 29.2213 57.7754 29.6023 57.6104 30.0964C57.3162 31.0048 57.0878 31.9356 56.9283 32.8854C56.6313 34.5939 53.6035 40.7017 51.8902 43.886C51.3237 42.6429 50.8479 41.5502 50.7462 40.6736C50.5922 39.3444 50.4224 38.5565 50.6012 36.9819C50.7827 35.404 51.5978 33.1663 51.5841 33.0037C51.5703 32.8443 51.4028 32.0422 49.7418 32.0263C48.0808 32.0104 46.6439 32.3914 46.4762 32.8854C46.3084 33.3827 46.1268 34.5493 45.794 35.6745C45.4585 36.7997 41.4252 46.9711 40.3692 49.6136C39.8275 50.9587 39.3619 52.04 39.0265 52.7699C38.9742 52.8879 38.9384 52.9616 38.9137 53.019C38.9522 52.9457 38.9781 52.872 38.9781 52.9007C38.6949 53.5286 38.5269 53.8781 38.5269 53.8781V53.8906C38.3069 54.3591 38.0624 54.787 37.9469 54.787C37.8699 54.787 37.7012 53.5595 37.9845 51.8797C38.5895 48.3447 40.0231 42.8508 40.0094 42.6596C39.9956 42.5576 40.274 41.607 39.064 41.097C37.8898 40.6157 37.4713 41.4207 37.3668 41.4207C37.2623 41.4207 37.1842 41.7133 37.1842 41.7133C37.1842 41.7133 38.4817 35.5188 34.6812 35.5188C32.308 35.5188 29.007 38.4694 27.3873 41.1406C26.3698 41.7685 24.1653 43.13 21.8443 44.5771C20.9561 45.1317 20.0438 45.7006 19.1803 46.2393C19.117 46.166 19.0636 46.0947 18.9976 46.0214C14.3831 40.4401 5.86493 36.4945 6.22518 29.0007C6.35443 26.269 7.19602 19.1006 22.607 10.3924C35.2405 3.26514 45.3397 5.21967 47.0777 9.57061C49.5775 15.7799 41.6757 27.3368 28.5582 29.0007C23.5587 29.6286 21.2555 27.1802 20.5982 26.361C19.9162 25.5004 19.8094 25.4546 19.5509 25.6139C19.1246 25.8753 19.3969 26.6368 19.5509 27.0894C19.9386 28.2433 21.6618 30.0506 24.4063 31.0738C26.8181 31.9663 32.3559 32.7155 39.4454 29.6045C47.4094 26.127 53.4931 16.6803 51.6754 8.57452C50.5187 3.42471 45.3805 0.441723 38.9029 0.045465ZM34.6759 39.1733C34.8774 39.1905 35.0271 39.2768 35.1109 39.441C35.5619 40.3048 33.5439 46.6633 33.0269 48.0945C32.2019 50.3895 30.4602 56.2355 29.4015 55.9263C28.4995 55.6649 27.9428 51.2073 29.2188 46.8245C29.8623 44.6188 31.23 41.9894 32.044 40.9662C33.0196 39.7279 34.0712 39.1216 34.6759 39.1733ZM61.4615 46.3825C61.6128 46.8925 61.6922 47.4283 61.7032 47.9638C61.6895 51.2533 59.6163 52.4778 58.3678 52.9878C58.1093 52.7838 58.1434 52.0946 59.0069 49.9622C59.3424 49.1303 60.1195 47.7276 61.4615 46.3825ZM18.1651 50.0058C19.2349 54.446 18.2049 58.3629 15.7052 61.4484C13.3347 64.3841 10.0077 65.4951 8.57772 64.5612C7.04322 63.5508 7.64977 59.2245 10.5758 56.0944C12.355 54.1947 14.6517 52.4435 16.1724 51.363C16.5217 51.1303 17.02 50.7784 17.6388 50.3544C17.7433 50.2811 17.7945 50.2548 17.7945 50.2548C17.91 50.1687 18.0359 50.095 18.1651 50.0058ZM50.5528 50.5163C50.5528 50.5896 50.5689 50.6668 50.5689 50.7529C50.5524 53.3666 48.3313 55.1317 47.3248 55.8329H47.3355V55.8392C46.9863 56.0432 46.6624 56.1715 46.5084 56.0695C46.3929 55.9962 46.6534 55.7209 46.6534 55.7209C46.6534 55.7209 48.4442 53.5403 49.151 52.5458C49.5635 51.9625 50.0386 51.2749 50.5528 50.5163Z" fill="#D90429"/>
</svg>
